<?xml version="1.0" encoding="UTF-8"?>
<svg width="1400" height="1050" viewBox="0 0 1400 1050" xmlns="http://www.w3.org/2000/svg" font-family="Arial, Helvetica, sans-serif">

  <!-- ============================================================
       BACKGROUND
  ============================================================ -->
  <rect width="1400" height="1050" fill="#E8EDF2" rx="0"/>

  <!-- Title bar -->
  <rect x="0" y="0" width="1400" height="52" fill="#1E293B" rx="0"/>
  <text x="700" y="32" text-anchor="middle" font-size="20" font-weight="bold" fill="#FFFFFF">
    Airflow + Spark + Ollama RCA — PoC Architecture
  </text>
  <text x="700" y="47" text-anchor="middle" font-size="11" fill="#94A3B8">
    GKE Cluster (poc-cluster) — us-central1-a  ·  All LLM inference stays inside cluster  ·  ~$0.22/hr (spot instances)
  </text>

  <!-- ============================================================
       ROW 1 — MODEL ACQUISITION LAYER
  ============================================================ -->
  <!-- Row 1 background band -->
  <rect x="20" y="62" width="1360" height="110" fill="#FFF7ED" rx="8" stroke="#FB923C" stroke-width="1.5" stroke-dasharray="6,3"/>
  <text x="36" y="80" font-size="11" font-weight="bold" fill="#EA580C">MODEL ACQUISITION LAYER (one-time setup)</text>

  <!-- HuggingFace box -->
  <rect x="60" y="88" width="200" height="70" fill="#FF6B35" rx="8" filter="url(#shadow)"/>
  <text x="160" y="111" text-anchor="middle" font-size="13" font-weight="bold" fill="#FFFFFF">HuggingFace</text>
  <text x="160" y="127" text-anchor="middle" font-size="11" fill="#FFE0D0">Model Registry</text>
  <text x="160" y="143" text-anchor="middle" font-size="10" fill="#FFCCB3">gemma2:2b (1.6 GB)</text>

  <!-- Arrow HuggingFace → Ollama Storage -->
  <defs>
    <marker id="arrow-gray" markerWidth="10" markerHeight="7" refX="9" refY="3.5" orient="auto">
      <polygon points="0 0, 10 3.5, 0 7" fill="#6B7280"/>
    </marker>
    <marker id="arrow-purple" markerWidth="10" markerHeight="7" refX="9" refY="3.5" orient="auto">
      <polygon points="0 0, 10 3.5, 0 7" fill="#7C3AED"/>
    </marker>
    <marker id="arrow-blue" markerWidth="10" markerHeight="7" refX="9" refY="3.5" orient="auto">
      <polygon points="0 0, 10 3.5, 0 7" fill="#0EA5E9"/>
    </marker>
    <marker id="arrow-amber" markerWidth="10" markerHeight="7" refX="9" refY="3.5" orient="auto">
      <polygon points="0 0, 10 3.5, 0 7" fill="#F59E0B"/>
    </marker>
    <marker id="arrow-green" markerWidth="10" markerHeight="7" refX="9" refY="3.5" orient="auto">
      <polygon points="0 0, 10 3.5, 0 7" fill="#10B981"/>
    </marker>
    <marker id="arrow-red" markerWidth="10" markerHeight="7" refX="9" refY="3.5" orient="auto">
      <polygon points="0 0, 10 3.5, 0 7" fill="#EF4444"/>
    </marker>
    <filter id="shadow" x="-5%" y="-5%" width="115%" height="130%">
      <feDropShadow dx="2" dy="3" stdDeviation="3" flood-color="#00000030"/>
    </filter>
    <filter id="shadow-light" x="-5%" y="-5%" width="115%" height="125%">
      <feDropShadow dx="1" dy="2" stdDeviation="2" flood-color="#00000020"/>
    </filter>
  </defs>

  <!-- Arrow 1: HuggingFace → Ollama Storage (dashed) -->
  <line x1="260" y1="123" x2="410" y2="123" stroke="#6B7280" stroke-width="2" stroke-dasharray="8,4" marker-end="url(#arrow-gray)"/>
  <rect x="270" y="106" width="130" height="18" fill="#FFF7ED" rx="3"/>
  <text x="335" y="119" text-anchor="middle" font-size="9.5" fill="#374151">ollama pull gemma2:2b</text>

  <!-- Ollama Model Storage box -->
  <rect x="410" y="88" width="200" height="70" fill="#7C3AED" rx="8" filter="url(#shadow)"/>
  <text x="510" y="111" text-anchor="middle" font-size="13" font-weight="bold" fill="#FFFFFF">Ollama Model Storage</text>
  <text x="510" y="127" text-anchor="middle" font-size="10" fill="#DDD6FE">PVC — 30 GB</text>
  <text x="510" y="143" text-anchor="middle" font-size="10" fill="#C4B5FD">/models/gemma2:2b</text>

  <!-- Arrow 2: Ollama Storage → Ollama Pod (down, handled in column section) -->
  <!-- drawn later in the LLM namespace section -->

  <!-- Callout: no external calls -->
  <rect x="670" y="85" width="300" height="75" fill="#ECFDF5" rx="8" stroke="#10B981" stroke-width="2"/>
  <text x="820" y="105" text-anchor="middle" font-size="12" font-weight="bold" fill="#065F46">Security Guarantee</text>
  <text x="820" y="121" text-anchor="middle" font-size="10" fill="#047857">No external API calls from DAGs</text>
  <text x="820" y="136" text-anchor="middle" font-size="10" fill="#047857">All LLM inference stays inside cluster</text>
  <text x="820" y="151" text-anchor="middle" font-size="10" fill="#047857">ClusterIP only · NetworkPolicy enforced</text>

  <!-- SLA + Cost annotations -->
  <rect x="1010" y="85" width="230" height="75" fill="#FEF3C7" rx="8" stroke="#F59E0B" stroke-width="2"/>
  <text x="1125" y="105" text-anchor="middle" font-size="12" font-weight="bold" fill="#92400E">Key Metrics</text>
  <text x="1125" y="121" text-anchor="middle" font-size="10" fill="#78350F">Failure → RCA email: 30–60 seconds</text>
  <text x="1125" y="136" text-anchor="middle" font-size="10" fill="#78350F">GCP cost: ~$0.22/hr (spot instances)</text>
  <text x="1125" y="151" text-anchor="middle" font-size="10" fill="#78350F">Time saving: 90 min → 15 min diagnosis</text>

  <!-- ============================================================
       ROW 2 — GKE CLUSTER BOX
  ============================================================ -->
  <rect x="20" y="186" width="1360" height="590" fill="#F1F5F9" rx="10" stroke="#94A3B8" stroke-width="2"/>
  <text x="40" y="208" font-size="13" font-weight="bold" fill="#475569">GKE Cluster — poc-cluster (us-central1-a, Standard mode, Kubernetes 1.29)</text>

  <!-- ── LLM SERVING NAMESPACE ── -->
  <rect x="35" y="218" width="270" height="340" fill="#FFFFFF" rx="8" stroke="#7C3AED" stroke-width="2.5"/>
  <rect x="35" y="218" width="270" height="26" fill="#7C3AED" rx="8"/>
  <rect x="35" y="235" width="270" height="9" fill="#7C3AED"/>
  <text x="170" y="236" text-anchor="middle" font-size="12" font-weight="bold" fill="#FFFFFF">namespace: llm-serving</text>

  <!-- Ollama Pod box -->
  <rect x="55" y="254" width="230" height="110" fill="#EDE9FE" rx="8" stroke="#7C3AED" stroke-width="1.5" filter="url(#shadow-light)"/>
  <rect x="55" y="254" width="230" height="24" fill="#8B5CF6" rx="8"/>
  <rect x="55" y="268" width="230" height="10" fill="#8B5CF6"/>
  <text x="170" y="271" text-anchor="middle" font-size="11" font-weight="bold" fill="#FFFFFF">Ollama Pod</text>
  <text x="170" y="291" text-anchor="middle" font-size="10" fill="#5B21B6">ollama/ollama:latest</text>
  <text x="170" y="306" text-anchor="middle" font-size="10" fill="#5B21B6">CPU only — no GPU required</text>
  <text x="170" y="321" text-anchor="middle" font-size="10" fill="#5B21B6">Model: gemma2:2b (loaded)</text>
  <text x="170" y="336" text-anchor="middle" font-size="10" fill="#5B21B6">Temp: 0.1  ·  Max tokens: 512</text>
  <text x="170" y="351" text-anchor="middle" font-size="10" fill="#5B21B6">Port: 11434</text>

  <!-- Arrow: Ollama Storage → Ollama Pod (from row 1 down) -->
  <line x1="510" y1="158" x2="510" y2="200" stroke="#7C3AED" stroke-width="2"/>
  <line x1="510" y1="200" x2="170" y2="200" stroke="#7C3AED" stroke-width="2"/>
  <line x1="170" y1="200" x2="170" y2="254" stroke="#7C3AED" stroke-width="2" marker-end="url(#arrow-purple)"/>
  <rect x="280" y="190" width="100" height="16" fill="#F1F5F9" rx="3"/>
  <text x="330" y="202" text-anchor="middle" font-size="9" fill="#5B21B6">Load model into pod</text>

  <!-- Ollama Service box -->
  <rect x="55" y="378" width="230" height="90" fill="#EDE9FE" rx="8" stroke="#7C3AED" stroke-width="1.5" filter="url(#shadow-light)"/>
  <rect x="55" y="378" width="230" height="24" fill="#8B5CF6" rx="8"/>
  <rect x="55" y="392" width="230" height="10" fill="#8B5CF6"/>
  <text x="170" y="395" text-anchor="middle" font-size="11" font-weight="bold" fill="#FFFFFF">Ollama Service</text>
  <text x="170" y="416" text-anchor="middle" font-size="10" fill="#5B21B6">Type: ClusterIP :11434</text>
  <text x="170" y="431" text-anchor="middle" font-size="10" fill="#5B21B6">DNS: ollama-service.llm-serving</text>
  <text x="170" y="446" text-anchor="middle" font-size="10" fill="#5B21B6">      .svc.cluster.local</text>
  <text x="170" y="461" text-anchor="middle" font-size="10" fill="#5B21B6">NetworkPolicy: airflow ns only</text>

  <!-- Arrow: Ollama Service → Ollama Pod (internal) -->
  <line x1="170" y1="378" x2="170" y2="364" stroke="#7C3AED" stroke-width="1.5" marker-end="url(#arrow-purple)"/>

  <!-- PVC annotation -->
  <rect x="55" y="480" width="230" height="60" fill="#F5F3FF" rx="6" stroke="#A78BFA" stroke-width="1" stroke-dasharray="4,3"/>
  <text x="170" y="499" text-anchor="middle" font-size="10" font-weight="bold" fill="#6D28D9">PersistentVolumeClaim</text>
  <text x="170" y="514" text-anchor="middle" font-size="10" fill="#7C3AED">30 GB — standard-rwo</text>
  <text x="170" y="529" text-anchor="middle" font-size="10" fill="#7C3AED">Mounted: /root/.ollama</text>

  <!-- Network policy label -->
  <rect x="55" y="548" width="230" height="24" fill="#F5F3FF" rx="4" stroke="#A78BFA" stroke-width="1"/>
  <text x="170" y="564" text-anchor="middle" font-size="9.5" fill="#5B21B6">NetworkPolicy: ingress from airflow ns</text>

  <!-- ── AIRFLOW NAMESPACE ── -->
  <rect x="330" y="218" width="630" height="540" fill="#FFFFFF" rx="8" stroke="#0EA5E9" stroke-width="2.5"/>
  <rect x="330" y="218" width="630" height="26" fill="#0EA5E9" rx="8"/>
  <rect x="330" y="235" width="630" height="9" fill="#0EA5E9"/>
  <text x="645" y="236" text-anchor="middle" font-size="12" font-weight="bold" fill="#FFFFFF">namespace: airflow  (KubernetesExecutor — mirrors GDC enterprise pattern)</text>

  <!-- Airflow Scheduler box -->
  <rect x="348" y="254" width="220" height="90" fill="#E0F2FE" rx="8" stroke="#0EA5E9" stroke-width="1.5" filter="url(#shadow-light)"/>
  <rect x="348" y="254" width="220" height="24" fill="#0284C7" rx="8"/>
  <rect x="348" y="268" width="220" height="10" fill="#0284C7"/>
  <text x="458" y="271" text-anchor="middle" font-size="11" font-weight="bold" fill="#FFFFFF">Airflow Scheduler</text>
  <text x="458" y="294" text-anchor="middle" font-size="10" fill="#0C4A6E">Monitors DAG file changes</text>
  <text x="458" y="309" text-anchor="middle" font-size="10" fill="#0C4A6E">Schedules task instances</text>
  <text x="458" y="324" text-anchor="middle" font-size="10" fill="#0C4A6E">Creates Worker Pods on demand</text>

  <!-- Airflow Webserver box -->
  <rect x="590" y="254" width="220" height="90" fill="#E0F2FE" rx="8" stroke="#0EA5E9" stroke-width="1.5" filter="url(#shadow-light)"/>
  <rect x="590" y="254" width="220" height="24" fill="#0284C7" rx="8"/>
  <rect x="590" y="268" width="220" height="10" fill="#0284C7"/>
  <text x="700" y="271" text-anchor="middle" font-size="11" font-weight="bold" fill="#FFFFFF">Airflow Webserver</text>
  <text x="700" y="294" text-anchor="middle" font-size="10" fill="#0C4A6E">DAG UI · Task logs</text>
  <text x="700" y="309" text-anchor="middle" font-size="10" fill="#0C4A6E">kubectl port-forward 8080</text>
  <text x="700" y="324" text-anchor="middle" font-size="10" fill="#0C4A6E">Helm: apache-airflow/airflow 2.9.2</text>

  <!-- Arrow: Scheduler → Worker Pod -->
  <line x1="458" y1="344" x2="458" y2="374" stroke="#0EA5E9" stroke-width="2" marker-end="url(#arrow-blue)"/>
  <text x="475" y="364" font-size="9" fill="#0369A1">creates pod</text>

  <!-- Worker Pod box -->
  <rect x="348" y="374" width="220" height="90" fill="#E0F2FE" rx="8" stroke="#0EA5E9" stroke-width="1.5" filter="url(#shadow-light)"/>
  <rect x="348" y="374" width="220" height="24" fill="#0284C7" rx="8"/>
  <rect x="348" y="388" width="220" height="10" fill="#0284C7"/>
  <text x="458" y="391" text-anchor="middle" font-size="11" font-weight="bold" fill="#FFFFFF">Worker Pod (ephemeral)</text>
  <text x="458" y="413" text-anchor="middle" font-size="10" fill="#0C4A6E">Task execution container</text>
  <text x="458" y="428" text-anchor="middle" font-size="10" fill="#0C4A6E">KubernetesExecutor pattern</text>
  <text x="458" y="443" text-anchor="middle" font-size="10" fill="#0C4A6E">Deleted after task completes</text>

  <!-- Arrow: Worker → FAILURE -->
  <line x1="458" y1="464" x2="458" y2="494" stroke="#EF4444" stroke-width="2" marker-end="url(#arrow-red)"/>
  <text x="465" y="484" font-size="9" fill="#DC2626">exception raised</text>

  <!-- FAILURE box (red) -->
  <rect x="348" y="494" width="220" height="70" fill="#FEE2E2" rx="8" stroke="#EF4444" stroke-width="2.5" filter="url(#shadow-light)"/>
  <rect x="348" y="494" width="220" height="24" fill="#DC2626" rx="8"/>
  <rect x="348" y="508" width="220" height="10" fill="#DC2626"/>
  <text x="458" y="511" text-anchor="middle" font-size="12" font-weight="bold" fill="#FFFFFF">TASK FAILED</text>
  <text x="458" y="533" text-anchor="middle" font-size="10" fill="#991B1B">on_failure_callback fires</text>
  <text x="458" y="548" text-anchor="middle" font-size="10" fill="#991B1B">immediately, every task</text>

  <!-- Arrow: FAILURE → rca_callback.py -->
  <line x1="458" y1="564" x2="458" y2="594" stroke="#EF4444" stroke-width="2" marker-end="url(#arrow-red)"/>
  <text x="465" y="584" font-size="9" fill="#DC2626">auto-triggered</text>

  <!-- rca_callback.py box -->
  <rect x="348" y="594" width="220" height="110" fill="#FEF3C7" rx="8" stroke="#D97706" stroke-width="1.5" filter="url(#shadow-light)"/>
  <rect x="348" y="594" width="220" height="24" fill="#B45309" rx="8"/>
  <rect x="348" y="608" width="220" height="10" fill="#B45309"/>
  <text x="458" y="611" text-anchor="middle" font-size="11" font-weight="bold" fill="#FFFFFF">rca_callback.py</text>
  <text x="458" y="633" text-anchor="middle" font-size="10" fill="#78350F">Collect: logs, error, context</text>
  <text x="458" y="648" text-anchor="middle" font-size="10" fill="#78350F">Query: run history from DB</text>
  <text x="458" y="663" text-anchor="middle" font-size="10" fill="#78350F">Build: structured RCA prompt</text>
  <text x="458" y="678" text-anchor="middle" font-size="10" fill="#78350F">Dispatch: Ollama + notify</text>
  <text x="458" y="693" text-anchor="middle" font-size="10" fill="#78350F">Store: results in PostgreSQL</text>

  <!-- DAG files section inside airflow ns -->
  <rect x="590" y="374" width="350" height="150" fill="#F0F9FF" rx="8" stroke="#7DD3FC" stroke-width="1.5"/>
  <text x="765" y="395" text-anchor="middle" font-size="11" font-weight="bold" fill="#0369A1">DAG Files (PersistentVolume 5Gi)</text>
  <text x="620" y="415" font-size="10" fill="#0C4A6E">· rca_dag.py            — Spark + RCA on failure</text>
  <text x="620" y="431" font-size="10" fill="#0C4A6E">· test_failure_dag.py   — Demo: intentional failure</text>
  <text x="620" y="447" font-size="10" fill="#0C4A6E">· wordcount_dag.py      — Simple Spark WordCount</text>
  <text x="620" y="463" font-size="10" fill="#0C4A6E">· anomaly_detection_dag — 30-min drift check</text>
  <text x="620" y="479" font-size="10" fill="#0C4A6E">· utils/ollama_client.py, rca_prompt.py</text>
  <text x="620" y="495" font-size="10" fill="#0C4A6E">· utils/notifier.py, anomaly_detector.py</text>

  <!-- Airflow extras annotation -->
  <rect x="590" y="538" width="350" height="70" fill="#F0F9FF" rx="6" stroke="#7DD3FC" stroke-width="1" stroke-dasharray="4,3"/>
  <text x="765" y="556" text-anchor="middle" font-size="10" font-weight="bold" fill="#0369A1">Pip extras (workers)</text>
  <text x="765" y="572" text-anchor="middle" font-size="9.5" fill="#0C4A6E">ollama==0.1.8  ·  requests  ·  psycopg2-binary</text>
  <text x="765" y="587" text-anchor="middle" font-size="9.5" fill="#0C4A6E">apache-airflow-providers-smtp</text>
  <text x="765" y="602" text-anchor="middle" font-size="9.5" fill="#0C4A6E">apache-airflow-providers-slack</text>

  <!-- Arrow: rca_callback → Ollama Service (left, crossing namespace boundary) -->
  <line x1="348" y1="650" x2="295" y2="650" stroke="#7C3AED" stroke-width="2.5" marker-end="url(#arrow-purple)"/>
  <!-- Label for this arrow -->
  <rect x="196" y="635" width="150" height="30" fill="#F5F3FF" rx="4" stroke="#A78BFA" stroke-width="1"/>
  <text x="271" y="649" text-anchor="middle" font-size="9" font-weight="bold" fill="#5B21B6">POST /api/generate</text>
  <text x="271" y="662" text-anchor="middle" font-size="9" fill="#5B21B6">Internal ClusterIP</text>

  <!-- Arrow: Ollama Pod → rca_callback (response, dashed) -->
  <line x1="285" y1="625" x2="345" y2="625" stroke="#7C3AED" stroke-width="2" stroke-dasharray="7,4" marker-end="url(#arrow-purple)"/>
  <rect x="202" y="608" width="145" height="18" fill="#F5F3FF" rx="3"/>
  <text x="275" y="620" text-anchor="middle" font-size="9" fill="#5B21B6">JSON: root_cause, fix</text>

  <!-- ── SPARK NAMESPACE ── -->
  <rect x="985" y="218" width="375" height="380" fill="#FFFFFF" rx="8" stroke="#F59E0B" stroke-width="2.5"/>
  <rect x="985" y="218" width="375" height="26" fill="#D97706" rx="8"/>
  <rect x="985" y="235" width="375" height="9" fill="#D97706"/>
  <text x="1172" y="236" text-anchor="middle" font-size="12" font-weight="bold" fill="#FFFFFF">namespace: spark-operator  /  spark-jobs</text>

  <!-- Spark Operator Controller -->
  <rect x="1005" y="254" width="335" height="90" fill="#FEF3C7" rx="8" stroke="#F59E0B" stroke-width="1.5" filter="url(#shadow-light)"/>
  <rect x="1005" y="254" width="335" height="24" fill="#D97706" rx="8"/>
  <rect x="1005" y="268" width="335" height="10" fill="#D97706"/>
  <text x="1172" y="271" text-anchor="middle" font-size="11" font-weight="bold" fill="#FFFFFF">Spark Operator Controller</text>
  <text x="1172" y="294" text-anchor="middle" font-size="10" fill="#78350F">Watches SparkApplication CRs in spark-jobs ns</text>
  <text x="1172" y="309" text-anchor="middle" font-size="10" fill="#78350F">Manages Driver + Executor pod lifecycle</text>
  <text x="1172" y="324" text-anchor="middle" font-size="10" fill="#78350F">Helm: spark-operator/spark-operator</text>

  <!-- Arrow: Spark Operator → SparkApplication -->
  <line x1="1172" y1="344" x2="1172" y2="374" stroke="#F59E0B" stroke-width="2" marker-end="url(#arrow-amber)"/>
  <text x="1180" y="364" font-size="9" fill="#92400E">manages</text>

  <!-- SparkApplication CR box -->
  <rect x="1005" y="374" width="335" height="100" fill="#FEF3C7" rx="8" stroke="#F59E0B" stroke-width="1.5" filter="url(#shadow-light)"/>
  <rect x="1005" y="374" width="335" height="24" fill="#D97706" rx="8"/>
  <rect x="1005" y="388" width="335" height="10" fill="#D97706"/>
  <text x="1172" y="391" text-anchor="middle" font-size="11" font-weight="bold" fill="#FFFFFF">SparkApplication CR (wordcount-[run_id])</text>
  <text x="1172" y="413" text-anchor="middle" font-size="10" fill="#78350F">Image: apache/spark:3.5.0</text>
  <text x="1172" y="428" text-anchor="middle" font-size="10" fill="#78350F">restartPolicy: Never (ephemeral)</text>
  <text x="1172" y="443" text-anchor="middle" font-size="10" fill="#78350F">Driver: 1 core · 512m  |  Executors: 2×512m</text>
  <text x="1172" y="458" text-anchor="middle" font-size="10" fill="#78350F">Deleted by DAG after completion</text>

  <!-- Arrow: SparkApplication → Driver/Executor pods -->
  <line x1="1172" y1="474" x2="1172" y2="504" stroke="#F59E0B" stroke-width="2" marker-end="url(#arrow-amber)"/>

  <!-- Driver + Executor pods box -->
  <rect x="1005" y="504" width="335" height="80" fill="#FFFBEB" rx="8" stroke="#FCD34D" stroke-width="1.5"/>
  <text x="1172" y="527" text-anchor="middle" font-size="11" font-weight="bold" fill="#92400E">Ephemeral Pods (spark-jobs ns)</text>
  <text x="1172" y="546" text-anchor="middle" font-size="10" fill="#78350F">Driver Pod (1)  +  Executor Pods (2)</text>
  <text x="1172" y="561" text-anchor="middle" font-size="10" fill="#78350F">Auto-deleted when SparkApp Completed</text>

  <!-- RBAC note -->
  <rect x="1005" y="598" width="335" height="50" fill="#FFFBEB" rx="6" stroke="#FCD34D" stroke-width="1" stroke-dasharray="4,3"/>
  <text x="1172" y="618" text-anchor="middle" font-size="10" font-weight="bold" fill="#92400E">RBAC: ServiceAccount spark</text>
  <text x="1172" y="634" text-anchor="middle" font-size="9.5" fill="#78350F">ClusterRole: SparkApplication R/W · pods create/delete</text>

  <!-- Arrow: Airflow Scheduler → Spark Operator (SparkKubernetesOperator) -->
  <line x1="568" y1="299" x2="985" y2="380" stroke="#F59E0B" stroke-width="2.5" stroke-dasharray="none" marker-end="url(#arrow-amber)"/>
  <rect x="710" y="298" width="190" height="20" fill="#FFFBEB" rx="4" stroke="#FCD34D" stroke-width="1"/>
  <text x="805" y="312" text-anchor="middle" font-size="10" font-weight="bold" fill="#92400E">SparkKubernetesOperator</text>

  <!-- ============================================================
       ROW 3 — OBSERVABILITY LAYER
  ============================================================ -->
  <rect x="20" y="790" width="1000" height="210" fill="#ECFDF5" rx="8" stroke="#10B981" stroke-width="2"/>
  <text x="36" y="810" font-size="12" font-weight="bold" fill="#065F46">OBSERVABILITY LAYER</text>

  <!-- PostgreSQL box -->
  <rect x="40" y="822" width="250" height="160" fill="#FFFFFF" rx="8" stroke="#10B981" stroke-width="1.5" filter="url(#shadow-light)"/>
  <rect x="40" y="822" width="250" height="26" fill="#059669" rx="8"/>
  <rect x="40" y="838" width="250" height="10" fill="#059669"/>
  <text x="165" y="840" text-anchor="middle" font-size="12" font-weight="bold" fill="#FFFFFF">PostgreSQL (monitoring ns)</text>
  <text x="165" y="866" text-anchor="middle" font-size="10" fill="#065F46">Table: dag_metrics</text>
  <text x="165" y="881" text-anchor="middle" font-size="10" fill="#065F46">· dag_id, task_id, run_id</text>
  <text x="165" y="896" text-anchor="middle" font-size="10" fill="#065F46">· duration_seconds, state</text>
  <text x="165" y="911" text-anchor="middle" font-size="10" fill="#065F46">· rca_root_cause, rca_confidence</text>
  <text x="165" y="926" text-anchor="middle" font-size="10" fill="#065F46">· rca_immediate_fix, rca_severity</text>
  <text x="165" y="941" text-anchor="middle" font-size="10" fill="#065F46">VIEW: dag_baselines (2-sigma thresholds)</text>
  <text x="165" y="956" text-anchor="middle" font-size="10" fill="#065F46">· avg_duration, upper/lower threshold</text>
  <text x="165" y="971" text-anchor="middle" font-size="9" fill="#6B7280">anomaly_detection_dag queries every 30 min</text>

  <!-- Prometheus box -->
  <rect x="320" y="822" width="220" height="160" fill="#FFFFFF" rx="8" stroke="#10B981" stroke-width="1.5" filter="url(#shadow-light)"/>
  <rect x="320" y="822" width="220" height="26" fill="#059669" rx="8"/>
  <rect x="320" y="838" width="220" height="10" fill="#059669"/>
  <text x="430" y="840" text-anchor="middle" font-size="12" font-weight="bold" fill="#FFFFFF">Prometheus</text>
  <text x="430" y="866" text-anchor="middle" font-size="10" fill="#065F46">Cluster metrics scraping</text>
  <text x="430" y="881" text-anchor="middle" font-size="10" fill="#065F46">Pod health + restarts</text>
  <text x="430" y="896" text-anchor="middle" font-size="10" fill="#065F46">Airflow StatsD metrics</text>
  <text x="430" y="911" text-anchor="middle" font-size="10" fill="#065F46">Spark driver/executor metrics</text>
  <text x="430" y="926" text-anchor="middle" font-size="10" fill="#065F46">Scrape interval: 15s</text>
  <text x="430" y="941" text-anchor="middle" font-size="10" fill="#065F46">Helm: prometheus-community</text>
  <text x="430" y="956" text-anchor="middle" font-size="10" fill="#065F46">/kube-prometheus-stack</text>

  <!-- Grafana box -->
  <rect x="570" y="822" width="220" height="160" fill="#FFFFFF" rx="8" stroke="#10B981" stroke-width="1.5" filter="url(#shadow-light)"/>
  <rect x="570" y="822" width="220" height="26" fill="#059669" rx="8"/>
  <rect x="570" y="838" width="220" height="10" fill="#059669"/>
  <text x="680" y="840" text-anchor="middle" font-size="12" font-weight="bold" fill="#FFFFFF">Grafana</text>
  <text x="680" y="866" text-anchor="middle" font-size="10" fill="#065F46">Pipeline Health Dashboard</text>
  <text x="680" y="881" text-anchor="middle" font-size="10" fill="#065F46">· DAG success/failure rates</text>
  <text x="680" y="896" text-anchor="middle" font-size="10" fill="#065F46">· RCA confidence over time</text>
  <text x="680" y="911" text-anchor="middle" font-size="10" fill="#065F46">· Run duration vs baseline</text>
  <text x="680" y="926" text-anchor="middle" font-size="10" fill="#065F46">· Anomaly detection alerts</text>
  <text x="680" y="941" text-anchor="middle" font-size="10" fill="#065F46">· Ollama response times</text>
  <text x="680" y="956" text-anchor="middle" font-size="10" fill="#065F46">kubectl port-forward 3000</text>

  <!-- Anomaly detection arrow note -->
  <rect x="810" y="870" width="195" height="80" fill="#ECFDF5" rx="6" stroke="#34D399" stroke-width="1.5"/>
  <text x="907" y="892" text-anchor="middle" font-size="11" font-weight="bold" fill="#065F46">Anomaly Detection</text>
  <text x="907" y="908" text-anchor="middle" font-size="9.5" fill="#047857">anomaly_detection_dag</text>
  <text x="907" y="922" text-anchor="middle" font-size="9.5" fill="#047857">Schedule: */30 * * * *</text>
  <text x="907" y="937" text-anchor="middle" font-size="9.5" fill="#047857">Threshold: avg ± 2σ</text>
  <text x="907" y="951" text-anchor="middle" font-size="9.5" fill="#047857">Alert on &gt;20% drift</text>

  <!-- Arrows: rca_callback → PostgreSQL -->
  <line x1="458" y1="704" x2="458" y2="760" stroke="#10B981" stroke-width="2"/>
  <line x1="458" y1="760" x2="165" y2="760" stroke="#10B981" stroke-width="2"/>
  <line x1="165" y1="760" x2="165" y2="822" stroke="#10B981" stroke-width="2" marker-end="url(#arrow-green)"/>
  <rect x="280" y="748" width="100" height="16" fill="#ECFDF5" rx="3"/>
  <text x="330" y="760" text-anchor="middle" font-size="9" fill="#065F46">Store RCA result</text>

  <!-- Arrows: PostgreSQL → Grafana -->
  <line x1="290" y1="900" x2="570" y2="900" stroke="#10B981" stroke-width="1.5" marker-end="url(#arrow-green)"/>
  <rect x="350" y="887" width="80" height="16" fill="#ECFDF5" rx="3"/>
  <text x="390" y="899" text-anchor="middle" font-size="9" fill="#065F46">Metrics feed</text>

  <!-- Arrows: Prometheus → Grafana -->
  <line x1="540" y1="920" x2="570" y2="920" stroke="#10B981" stroke-width="1.5" marker-end="url(#arrow-green)"/>

  <!-- ============================================================
       EXTERNAL NOTIFICATIONS (right side)
  ============================================================ -->
  <rect x="1040" y="628" width="330" height="375" fill="#F9FAFB" rx="8" stroke="#6B7280" stroke-width="2"/>
  <text x="1205" y="648" text-anchor="middle" font-size="12" font-weight="bold" fill="#374151">EXTERNAL NOTIFICATIONS</text>

  <!-- Gmail/SMTP box -->
  <rect x="1060" y="660" width="290" height="140" fill="#FFFFFF" rx="8" stroke="#6B7280" stroke-width="1.5" filter="url(#shadow-light)"/>
  <rect x="1060" y="660" width="290" height="26" fill="#4B5563" rx="8"/>
  <rect x="1060" y="676" width="290" height="10" fill="#4B5563"/>
  <text x="1205" y="678" text-anchor="middle" font-size="12" font-weight="bold" fill="#FFFFFF">Gmail / SMTP Email</text>
  <text x="1205" y="704" text-anchor="middle" font-size="10" fill="#374151">Rich HTML email template</text>
  <text x="1205" y="719" text-anchor="middle" font-size="10" fill="#374151">· Red header banner for failures</text>
  <text x="1205" y="734" text-anchor="middle" font-size="10" fill="#374151">· Root cause + confidence score</text>
  <text x="1205" y="749" text-anchor="middle" font-size="10" fill="#374151">· Immediate fix (highlighted box)</text>
  <text x="1205" y="764" text-anchor="middle" font-size="10" fill="#374151">· Severity badge + DAG link</text>
  <text x="1205" y="779" text-anchor="middle" font-size="10" fill="#374151">smtp.gmail.com:587 (STARTTLS)</text>

  <!-- Slack box -->
  <rect x="1060" y="818" width="290" height="140" fill="#FFFFFF" rx="8" stroke="#6B7280" stroke-width="1.5" filter="url(#shadow-light)"/>
  <rect x="1060" y="818" width="290" height="26" fill="#4B5563" rx="8"/>
  <rect x="1060" y="834" width="290" height="10" fill="#4B5563"/>
  <text x="1205" y="836" text-anchor="middle" font-size="12" font-weight="bold" fill="#FFFFFF">Slack (Block Kit)</text>
  <text x="1205" y="862" text-anchor="middle" font-size="10" fill="#374151">Block Kit message format</text>
  <text x="1205" y="877" text-anchor="middle" font-size="10" fill="#374151">· Header: "DAG Failure — RCA Generated"</text>
  <text x="1205" y="892" text-anchor="middle" font-size="10" fill="#374151">· Section: DAG + task details</text>
  <text x="1205" y="907" text-anchor="middle" font-size="10" fill="#374151">· Section: Root cause (bold)</text>
  <text x="1205" y="922" text-anchor="middle" font-size="10" fill="#374151">· Context: severity, confidence</text>
  <text x="1205" y="937" text-anchor="middle" font-size="10" fill="#374151">· Button: Link to Airflow UI</text>
  <text x="1205" y="952" text-anchor="middle" font-size="10" fill="#374151">Incoming Webhook URL (optional)</text>

  <!-- Arrows: rca_callback → Gmail and Slack -->
  <line x1="568" y1="660" x2="800" y2="660" stroke="#6B7280" stroke-width="2" stroke-dasharray="none"/>
  <line x1="800" y1="660" x2="800" y2="730" stroke="#6B7280" stroke-width="2"/>
  <line x1="800" y1="730" x2="1060" y2="730" stroke="#6B7280" stroke-width="2" marker-end="url(#arrow-gray)"/>
  <rect x="610" y="644" width="130" height="18" fill="#F9FAFB" rx="3"/>
  <text x="675" y="657" text-anchor="middle" font-size="9" fill="#374151">HTML Email (30-60s)</text>

  <line x1="568" y1="685" x2="810" y2="685" stroke="#6B7280" stroke-width="2"/>
  <line x1="810" y1="685" x2="810" y2="888" stroke="#6B7280" stroke-width="2"/>
  <line x1="810" y1="888" x2="1060" y2="888" stroke="#6B7280" stroke-width="2" marker-end="url(#arrow-gray)"/>
  <rect x="612" y="668" width="120" height="18" fill="#F9FAFB" rx="3"/>
  <text x="672" y="681" text-anchor="middle" font-size="9" fill="#374151">Block Kit alert</text>

  <!-- ============================================================
       LEGEND
  ============================================================ -->
  <rect x="20" y="1008" width="1360" height="36" fill="#1E293B" rx="4"/>
  <text x="30" y="1021" font-size="10" font-weight="bold" fill="#94A3B8">LEGEND:</text>

  <!-- Legend items -->
  <rect x="100" y="1013" width="14" height="14" fill="#FF6B35" rx="2"/>
  <text x="120" y="1024" font-size="10" fill="#E2E8F0">Model Acquisition</text>

  <rect x="240" y="1013" width="14" height="14" fill="#7C3AED" rx="2"/>
  <text x="260" y="1024" font-size="10" fill="#E2E8F0">LLM / Ollama</text>

  <rect x="370" y="1013" width="14" height="14" fill="#0EA5E9" rx="2"/>
  <text x="390" y="1024" font-size="10" fill="#E2E8F0">Airflow / DAGs</text>

  <rect x="500" y="1013" width="14" height="14" fill="#F59E0B" rx="2"/>
  <text x="520" y="1024" font-size="10" fill="#E2E8F0">Spark</text>

  <rect x="590" y="1013" width="14" height="14" fill="#10B981" rx="2"/>
  <text x="610" y="1024" font-size="10" fill="#E2E8F0">Observability</text>

  <rect x="710" y="1013" width="14" height="14" fill="#EF4444" rx="2"/>
  <text x="730" y="1024" font-size="10" fill="#E2E8F0">Failure Path</text>

  <rect x="820" y="1013" width="14" height="14" fill="#4B5563" rx="2"/>
  <text x="840" y="1024" font-size="10" fill="#E2E8F0">External Notifications</text>

  <!-- Arrow legend -->
  <line x1="980" y1="1020" x2="1010" y2="1020" stroke="#6B7280" stroke-width="2" marker-end="url(#arrow-gray)"/>
  <text x="1015" y="1024" font-size="10" fill="#E2E8F0">Data flow</text>

  <line x1="1090" y1="1020" x2="1120" y2="1020" stroke="#6B7280" stroke-width="2" stroke-dasharray="5,3" marker-end="url(#arrow-gray)"/>
  <text x="1125" y="1024" font-size="10" fill="#E2E8F0">Setup / Response</text>

  <text x="1280" y="1024" font-size="9" fill="#64748B">v1.0 — Airflow + Spark + Ollama RCA PoC</text>

</svg>
