<?xml version="1.0" encoding="UTF-8"?>
<svg width="1680" height="1460" viewBox="0 0 1680 1460"
     xmlns="http://www.w3.org/2000/svg"
     xmlns:xlink="http://www.w3.org/1999/xlink"
     font-family="'Segoe UI', Arial, sans-serif">

  <defs>
    <!-- Arrow markers -->
    <marker id="arr-orange" markerWidth="10" markerHeight="7" refX="9" refY="3.5" orient="auto"><polygon points="0 0,10 3.5,0 7" fill="#EA580C"/></marker>
    <marker id="arr-purple" markerWidth="10" markerHeight="7" refX="9" refY="3.5" orient="auto"><polygon points="0 0,10 3.5,0 7" fill="#7C3AED"/></marker>
    <marker id="arr-blue"   markerWidth="10" markerHeight="7" refX="9" refY="3.5" orient="auto"><polygon points="0 0,10 3.5,0 7" fill="#0369A1"/></marker>
    <marker id="arr-red"    markerWidth="10" markerHeight="7" refX="9" refY="3.5" orient="auto"><polygon points="0 0,10 3.5,0 7" fill="#DC2626"/></marker>
    <marker id="arr-amber"  markerWidth="10" markerHeight="7" refX="9" refY="3.5" orient="auto"><polygon points="0 0,10 3.5,0 7" fill="#D97706"/></marker>
    <marker id="arr-green"  markerWidth="10" markerHeight="7" refX="9" refY="3.5" orient="auto"><polygon points="0 0,10 3.5,0 7" fill="#16A34A"/></marker>
    <marker id="arr-teal"   markerWidth="10" markerHeight="7" refX="9" refY="3.5" orient="auto"><polygon points="0 0,10 3.5,0 7" fill="#0F766E"/></marker>
    <marker id="arr-crimson" markerWidth="10" markerHeight="7" refX="9" refY="3.5" orient="auto"><polygon points="0 0,10 3.5,0 7" fill="#BE123C"/></marker>
    <marker id="arr-dkblue" markerWidth="10" markerHeight="7" refX="9" refY="3.5" orient="auto"><polygon points="0 0,10 3.5,0 7" fill="#1D4ED8"/></marker>
    <marker id="arr-gold"   markerWidth="10" markerHeight="7" refX="9" refY="3.5" orient="auto"><polygon points="0 0,10 3.5,0 7" fill="#CA8A04"/></marker>
    <filter id="shadow"><feDropShadow dx="1" dy="2" stdDeviation="2" flood-color="#00000018"/></filter>
  </defs>

  <!-- ═══ PAGE BACKGROUND ═══ -->
  <rect width="1680" height="1460" fill="#F1F5F9"/>

  <!-- ═══ TITLE BAR ═══ -->
  <rect x="18" y="10" width="1644" height="54" rx="5" fill="#1E293B"/>
  <text x="840" y="35" text-anchor="middle" font-size="17" font-weight="700" fill="white">AI-Enhanced Data Pipeline — Airflow + Spark + Ollama + Trino RCA PoC</text>
  <text x="840" y="54" text-anchor="middle" font-size="11" fill="#94A3B8">Namespace: clmanalytics-dev1  ·  Internal LLM Only (no external API)  ·  MEA + DBNotifier/Teams  ·  No Gmail · No AWS · No Slack</text>

  <!-- ═══ MODEL ACQUISITION LAYER ═══ -->
  <text x="50" y="84" font-size="11" font-weight="700" fill="#78350F">Model Acquisition (one-time setup)</text>

  <!-- HuggingFace box -->
  <rect x="42" y="90" width="196" height="118" rx="8" fill="#FFF7ED" stroke="#EA580C" stroke-width="2" filter="url(#shadow)"/>
  <image href="https://huggingface.co/front/assets/huggingface_logo-noborder.svg" x="103" y="100" width="36" height="36"/>
  <text x="140" y="153" text-anchor="middle" font-size="11" font-weight="700" fill="#1E293B">HuggingFace</text>
  <text x="140" y="167" text-anchor="middle" font-size="10" fill="#78350F">Model Registry</text>
  <text x="140" y="180" text-anchor="middle" font-size="10" fill="#92400E">gemma2:2b · 1.6 GB</text>

  <!-- Ollama Storage box -->
  <rect x="316" y="90" width="218" height="118" rx="8" fill="#EDE9FE" stroke="#7C3AED" stroke-width="2" filter="url(#shadow)"/>
  <text x="425" y="118" text-anchor="middle" font-size="22">🗄️</text>
  <text x="425" y="143" text-anchor="middle" font-size="11" font-weight="700" fill="#1E293B">Ollama Model Storage</text>
  <text x="425" y="157" text-anchor="middle" font-size="10" fill="#4C1D95">PVC · 20 GB</text>
  <text x="425" y="170" text-anchor="middle" font-size="10" fill="#4C1D95">/root/.ollama/models</text>

  <!-- Arrow: HuggingFace → Ollama Storage -->
  <path d="M238 149 L312 149" stroke="#EA580C" stroke-width="2" stroke-dasharray="6,3" fill="none" marker-end="url(#arr-orange)"/>
  <text x="275" y="143" text-anchor="middle" font-size="9" fill="#92400E" font-weight="600">ollama pull gemma2:2b</text>

  <!-- Arrow: Ollama Storage → Ollama Pod (routed above namespace) -->
  <path d="M425 208 L425 226 L165 226 L165 312" stroke="#7C3AED" stroke-width="2" stroke-dasharray="6,3" fill="none" marker-end="url(#arr-purple)"/>
  <text x="295" y="220" text-anchor="middle" font-size="9" fill="#4C1D95">load model</text>

  <!-- Security callout -->
  <rect x="1354" y="76" width="284" height="100" rx="8" fill="#EFF6FF" stroke="#1D4ED8" stroke-width="2"/>
  <text x="1496" y="100" text-anchor="middle" font-size="11" font-weight="700" fill="#1E3A8A">🔒 Zero External API Calls</text>
  <text x="1496" y="116" text-anchor="middle" font-size="10" fill="#1E3A8A">All LLM inference inside cluster</text>
  <text x="1496" y="130" text-anchor="middle" font-size="10" fill="#1E3A8A">ClusterIP only · no egress</text>
  <text x="1496" y="144" text-anchor="middle" font-size="10" fill="#1E3A8A">Mirrors GDC air-gapped pattern</text>

  <!-- ═══ NAMESPACE BOUNDARY ═══ -->
  <rect x="20" y="228" width="1298" height="1180" rx="6" fill="#F8FAFC" stroke="#334155" stroke-width="3"/>
  <image href="https://upload.wikimedia.org/wikipedia/commons/3/39/Kubernetes_logo_without_workmark.svg" x="28" y="234" width="26" height="26"/>
  <text x="840" y="250" text-anchor="middle" font-size="12" font-weight="700" fill="#1E293B">Namespace: clmanalytics-dev1  ·  All services co-located</text>

  <!-- ═══ OLLAMA SECTION (purple) ═══ -->
  <rect x="38" y="270" width="256" height="452" rx="6" fill="#FAF5FF" stroke="#7C3AED" stroke-width="2"/>
  <rect x="38" y="270" width="256" height="32" rx="6" fill="#7C3AED"/>
  <image href="https://avatars.githubusercontent.com/u/151674099" x="46" y="275" width="22" height="22" style="border-radius:4px;"/>
  <text x="180" y="292" text-anchor="middle" font-size="12" font-weight="700" fill="white">Ollama LLM Service</text>

  <!-- Ollama Pod -->
  <rect x="56" y="312" width="220" height="134" rx="6" fill="#EDE9FE" stroke="#7C3AED" stroke-width="1.5"/>
  <text x="80" y="334" font-size="18">🦙</text>
  <text x="166" y="336" text-anchor="middle" font-size="11" font-weight="700" fill="#1E293B">Ollama Pod</text>
  <text x="166" y="352" text-anchor="middle" font-size="10" fill="#4C1D95">ollama/ollama:latest</text>
  <text x="166" y="366" text-anchor="middle" font-size="10" fill="#374151">CPU mode · 4–6 GB RAM</text>
  <text x="166" y="380" text-anchor="middle" font-size="10" fill="#4C1D95">gemma2:2b loaded</text>
  <text x="166" y="394" text-anchor="middle" font-size="10" fill="#6B7280">temperature: 0.1</text>
  <text x="166" y="408" text-anchor="middle" font-size="10" fill="#6B7280">Liveness: /api/tags :11434</text>

  <!-- Arrow: Ollama Pod → ClusterIP -->
  <path d="M166 446 L166 456" stroke="#7C3AED" stroke-width="2" fill="none" marker-end="url(#arr-purple)"/>

  <!-- Ollama ClusterIP Service -->
  <rect x="56" y="456" width="220" height="88" rx="6" fill="#DDD6FE" stroke="#7C3AED" stroke-width="1.5"/>
  <text x="166" y="477" text-anchor="middle" font-size="11" font-weight="700" fill="#1E293B">ClusterIP Service</text>
  <text x="166" y="492" text-anchor="middle" font-size="10" fill="#4C1D95">Port: 11434</text>
  <text x="166" y="506" text-anchor="middle" font-size="10" fill="#374151">Internal only</text>
  <text x="166" y="520" text-anchor="middle" font-size="10" fill="#374151">NetworkPolicy enforced</text>

  <!-- DNS note -->
  <rect x="56" y="554" width="220" height="30" rx="5" fill="#F3E8FF" stroke="#A78BFA" stroke-width="1"/>
  <text x="166" y="573" text-anchor="middle" font-size="9" fill="#6D28D9">ollama-service.clmanalytics-dev1:11434</text>

  <!-- Response note -->
  <rect x="56" y="594" width="220" height="60" rx="5" fill="#EDE9FE" stroke="#7C3AED" stroke-width="1"/>
  <text x="166" y="612" text-anchor="middle" font-size="9" fill="#4C1D95">Response: JSON</text>
  <text x="166" y="626" text-anchor="middle" font-size="9" fill="#4C1D95">{root_cause, confidence,</text>
  <text x="166" y="640" text-anchor="middle" font-size="9" fill="#4C1D95">immediate_fix, severity}</text>

  <!-- ═══ AIRFLOW SECTION (blue) ═══ -->
  <rect x="312" y="270" width="532" height="1084" rx="6" fill="#EFF6FF" stroke="#0EA5E9" stroke-width="2"/>
  <rect x="312" y="270" width="532" height="32" rx="6" fill="#0369A1"/>
  <image href="https://upload.wikimedia.org/wikipedia/commons/d/de/AirflowLogo.png" x="320" y="275" width="80" height="22"/>
  <text x="620" y="292" text-anchor="middle" font-size="12" font-weight="700" fill="white">Apache Airflow</text>

  <!-- Webserver -->
  <rect x="330" y="312" width="224" height="82" rx="6" fill="#DBEAFE" stroke="#0EA5E9" stroke-width="1.5"/>
  <text x="442" y="337" text-anchor="middle" font-size="11" font-weight="700" fill="#1E293B">Airflow Webserver</text>
  <text x="442" y="353" text-anchor="middle" font-size="10" fill="#374151">UI + REST API · Port 8080</text>
  <text x="442" y="368" text-anchor="middle" font-size="10" fill="#6B7280">DAG management console</text>

  <!-- Scheduler -->
  <rect x="580" y="312" width="224" height="82" rx="6" fill="#DBEAFE" stroke="#0EA5E9" stroke-width="1.5"/>
  <text x="692" y="337" text-anchor="middle" font-size="11" font-weight="700" fill="#1E293B">Airflow Scheduler</text>
  <text x="692" y="353" text-anchor="middle" font-size="10" fill="#374151">KubernetesExecutor</text>
  <text x="692" y="368" text-anchor="middle" font-size="10" fill="#6B7280">Creates task pods</text>

  <!-- Scheduler creates Worker (arrow) -->
  <path d="M692 394 L692 410 L608 410 L608 420" stroke="#0369A1" stroke-width="2" fill="none" marker-end="url(#arr-blue)"/>
  <text x="720" y="406" font-size="9" fill="#0369A1">creates task pod</text>

  <!-- Worker Pod -->
  <rect x="480" y="420" width="296" height="72" rx="6" fill="#BFDBFE" stroke="#0369A1" stroke-width="1.5"/>
  <text x="628" y="444" text-anchor="middle" font-size="11" font-weight="700" fill="#1E293B">Worker Pod  (Ephemeral)</text>
  <text x="628" y="459" text-anchor="middle" font-size="10" fill="#374151">KubernetesExecutor · 1 pod per task</text>
  <text x="628" y="474" text-anchor="middle" font-size="10" fill="#6B7280">Deleted on completion</text>

  <!-- Arrow: Worker → FAILED -->
  <path d="M628 492 L628 506" stroke="#DC2626" stroke-width="2" fill="none" marker-end="url(#arr-red)"/>

  <!-- TASK FAILED -->
  <rect x="480" y="506" width="296" height="72" rx="6" fill="#FEE2E2" stroke="#DC2626" stroke-width="2"/>
  <text x="628" y="532" text-anchor="middle" font-size="11" font-weight="700" fill="#991B1B">❌  TASK FAILED</text>
  <text x="628" y="548" text-anchor="middle" font-size="10" fill="#991B1B">Exception raised · state = FAILED</text>
  <text x="628" y="563" text-anchor="middle" font-size="10" fill="#DC2626">on_failure_callback triggered</text>

  <!-- Arrow: FAILED → rca_callback -->
  <path d="M628 578 L628 594" stroke="#DC2626" stroke-width="2" fill="none" marker-end="url(#arr-red)"/>
  <text x="636" y="590" font-size="9" fill="#DC2626">triggers</text>

  <!-- rca_callback box -->
  <rect x="424" y="594" width="380" height="222" rx="6" fill="#DBEAFE" stroke="#0369A1" stroke-width="2"/>
  <text x="614" y="616" text-anchor="middle" font-size="11" font-weight="700" fill="#1E293B">rca_callback.py</text>
  <line x1="424" y1="622" x2="804" y2="622" stroke="#0369A1" stroke-width="1" opacity="0.4"/>
  <text x="436" y="638" font-size="10" fill="#1E3A8A">① Collect: dag_id, task_id, error, logs</text>
  <text x="436" y="654" font-size="10" fill="#1E3A8A">② Query PostgreSQL — run history</text>
  <text x="436" y="670" font-size="10" fill="#1E3A8A">③ Build structured RCA prompt</text>
  <text x="436" y="686" font-size="10" fill="#1E3A8A">④ POST /api/generate → Ollama:11434</text>
  <text x="436" y="702" font-size="10" fill="#1E3A8A">⑤ Parse JSON RCA response</text>
  <text x="436" y="718" font-size="10" fill="#1E3A8A">⑥ Store result → dag_metrics table</text>
  <text x="436" y="734" font-size="10" fill="#1E3A8A">⑦ Send HTML email via MEA</text>
  <text x="436" y="750" font-size="10" fill="#1E3A8A">⑧ Send Teams alert via DBNotifier</text>
  <text x="436" y="766" font-size="10" fill="#1E3A8A">⑨ Anomaly: drift &gt;20% → alert</text>

  <!-- Active DAGs -->
  <rect x="330" y="836" width="242" height="122" rx="6" fill="#DBEAFE" stroke="#0EA5E9" stroke-width="1.5"/>
  <text x="451" y="858" text-anchor="middle" font-size="11" font-weight="700" fill="#1E293B">Active DAGs</text>
  <text x="342" y="875" font-size="10" fill="#374151">• rca_dag.py  (@daily)</text>
  <text x="342" y="891" font-size="10" fill="#374151">• wordcount_dag.py  (manual)</text>
  <text x="342" y="907" font-size="10" fill="#374151">• test_failure_dag.py  (demo)</text>
  <text x="342" y="923" font-size="10" fill="#374151">• anomaly_detection_dag.py</text>
  <text x="342" y="939" font-size="10" fill="#6B7280">  (every 30 min, ±2σ baseline)</text>

  <!-- Anomaly detection -->
  <rect x="592" y="836" width="232" height="122" rx="6" fill="#DBEAFE" stroke="#0EA5E9" stroke-width="1.5" stroke-dasharray="6,3"/>
  <text x="708" y="858" text-anchor="middle" font-size="11" font-weight="700" fill="#1E293B">Anomaly Detection</text>
  <text x="604" y="875" font-size="10" fill="#374151">• Baseline ± 2σ per DAG</text>
  <text x="604" y="891" font-size="10" fill="#374151">• 30-day rolling window</text>
  <text x="604" y="907" font-size="10" fill="#374151">• Drift &gt;20% → Ollama explains</text>
  <text x="604" y="923" font-size="10" fill="#374151">• Alert via MEA + Teams</text>

  <!-- Airflow DB note -->
  <rect x="330" y="976" width="494" height="30" rx="5" fill="#EFF6FF" stroke="#0EA5E9" stroke-width="1"/>
  <text x="577" y="995" text-anchor="middle" font-size="9" fill="#0369A1">Airflow Metadata DB: PostgreSQL (shared) · Fernet key: K8s Secret · Executor: KubernetesExecutor</text>

  <!-- ═══ TRINO SECTION (teal) ═══ -->
  <rect x="864" y="270" width="432" height="232" rx="6" fill="#F0FDFA" stroke="#0F766E" stroke-width="2"/>
  <rect x="864" y="270" width="432" height="32" rx="6" fill="#0F766E"/>
  <image href="https://avatars.githubusercontent.com/u/61451348" x="872" y="275" width="22" height="22" style="border-radius:3px;"/>
  <text x="1080" y="292" text-anchor="middle" font-size="12" font-weight="700" fill="white">Trino — Distributed SQL Engine</text>

  <!-- Trino Coordinator -->
  <rect x="882" y="312" width="396" height="162" rx="6" fill="#CCFBF1" stroke="#0F766E" stroke-width="1.5"/>
  <text x="1080" y="337" text-anchor="middle" font-size="11" font-weight="700" fill="#1E293B">Trino Coordinator</text>
  <text x="1080" y="355" text-anchor="middle" font-size="10" fill="#374151">Federated SQL Query Engine</text>
  <text x="1080" y="371" text-anchor="middle" font-size="10" fill="#374151">Internal REST API · Port 8080 · ClusterIP</text>
  <text x="1080" y="387" text-anchor="middle" font-size="10" fill="#6B7280">Connectors: Hive, JDBC, S3, Kafka</text>
  <text x="1080" y="403" text-anchor="middle" font-size="10" fill="#6B7280">Workers: auto-scaled</text>
  <text x="1080" y="419" text-anchor="middle" font-size="10" fill="#6B7280">Fault-tolerant query execution</text>
  <text x="1080" y="434" text-anchor="middle" font-size="10" fill="#6B7280">Supports analytics over multiple sources</text>

  <!-- Arrow: Worker → Trino (dashed) -->
  <path d="M776 456 L776 380 L878 380" stroke="#0F766E" stroke-width="1.5" stroke-dasharray="5,3" fill="none" marker-end="url(#arr-teal)"/>
  <text x="820" y="372" text-anchor="middle" font-size="9" fill="#0F766E">SQL queries</text>

  <!-- ═══ SPARK SECTION (amber) ═══ -->
  <rect x="864" y="518" width="432" height="292" rx="6" fill="#FFFBEB" stroke="#D97706" stroke-width="2"/>
  <rect x="864" y="518" width="432" height="32" rx="6" fill="#D97706"/>
  <image href="https://upload.wikimedia.org/wikipedia/commons/f/f3/Apache_Spark_logo.svg" x="872" y="522" width="80" height="22"/>
  <text x="1080" y="540" text-anchor="middle" font-size="12" font-weight="700" fill="white">Spark Jobs (ephemeral)</text>

  <!-- SparkApplication CR -->
  <rect x="882" y="560" width="396" height="76" rx="6" fill="#FDE68A" stroke="#D97706" stroke-width="1.5"/>
  <text x="1080" y="585" text-anchor="middle" font-size="11" font-weight="700" fill="#1E293B">SparkApplication CR</text>
  <text x="1080" y="601" text-anchor="middle" font-size="10" fill="#92400E">wordcount-{run_id} · image: apache/spark:3.5.0</text>
  <text x="1080" y="617" text-anchor="middle" font-size="10" fill="#78350F">restartPolicy: Never  (GDC ephemeral pattern)</text>

  <!-- Driver Pod -->
  <rect x="882" y="652" width="128" height="86" rx="6" fill="#FEF3C7" stroke="#D97706" stroke-width="1.5"/>
  <text x="946" y="674" text-anchor="middle" font-size="11" font-weight="700" fill="#1E293B">Driver Pod</text>
  <text x="946" y="690" text-anchor="middle" font-size="10" fill="#92400E">cores: 1</text>
  <text x="946" y="706" text-anchor="middle" font-size="10" fill="#92400E">memory: 512m</text>
  <text x="946" y="722" text-anchor="middle" font-size="10" fill="#6B7280">SA: spark</text>

  <!-- Executor -->
  <rect x="1026" y="652" width="128" height="86" rx="6" fill="#FEF3C7" stroke="#D97706" stroke-width="1.5"/>
  <text x="1090" y="674" text-anchor="middle" font-size="11" font-weight="700" fill="#1E293B">Executor × 2</text>
  <text x="1090" y="690" text-anchor="middle" font-size="10" fill="#92400E">cores: 1 each</text>
  <text x="1090" y="706" text-anchor="middle" font-size="10" fill="#92400E">memory: 512m</text>

  <!-- Deleted badge -->
  <rect x="1170" y="652" width="100" height="86" rx="6" fill="#D1FAE5" stroke="#059669" stroke-width="1.5" stroke-dasharray="5,3"/>
  <text x="1220" y="682" text-anchor="middle" font-size="16">✓</text>
  <text x="1220" y="700" text-anchor="middle" font-size="10" font-weight="700" fill="#065F46">Deleted after</text>
  <text x="1220" y="714" text-anchor="middle" font-size="10" fill="#065F46">completion</text>
  <text x="1220" y="728" text-anchor="middle" font-size="9" fill="#6B7280">(ephemeral)</text>

  <!-- Arrows: CR → Driver, Executor -->
  <path d="M933 636 L933 648" stroke="#D97706" stroke-width="1.5" fill="none" marker-end="url(#arr-amber)"/>
  <path d="M1080 636 L1080 648" stroke="#D97706" stroke-width="1.5" fill="none" marker-end="url(#arr-amber)"/>

  <!-- Scheduler → SparkApplication CR -->
  <path d="M692 394 L692 490 L864 490 L864 598 L878 598" stroke="#D97706" stroke-width="2" fill="none" marker-end="url(#arr-amber)"/>
  <text x="800" y="484" text-anchor="middle" font-size="9" fill="#92400E" font-weight="600">SparkKubernetesOperator</text>

  <!-- ═══ POSTGRESQL SECTION (green) ═══ -->
  <rect x="864" y="826" width="432" height="306" rx="6" fill="#F0FDF4" stroke="#16A34A" stroke-width="2"/>
  <rect x="864" y="826" width="432" height="32" rx="6" fill="#16A34A"/>
  <image href="https://upload.wikimedia.org/wikipedia/commons/2/29/Postgresql_elephant.svg" x="872" y="830" width="22" height="22"/>
  <text x="1080" y="848" text-anchor="middle" font-size="12" font-weight="700" fill="white">PostgreSQL</text>

  <!-- Details box -->
  <rect x="882" y="868" width="396" height="238" rx="6" fill="#DCFCE7" stroke="#16A34A" stroke-width="1.5"/>
  <text x="1080" y="892" text-anchor="middle" font-size="11" font-weight="700" fill="#14532D">dag_metrics table</text>
  <text x="894" y="910" font-size="10" fill="#374151">dag_id · task_id · run_id · execution_date</text>
  <text x="894" y="926" font-size="10" fill="#374151">duration_seconds · state · error_message</text>
  <text x="894" y="942" font-size="10" fill="#374151">rca_root_cause · rca_category · rca_confidence</text>
  <text x="894" y="958" font-size="10" fill="#374151">rca_immediate_fix · rca_severity</text>
  <line x1="882" y1="968" x2="1278" y2="968" stroke="#16A34A" stroke-width="1" opacity="0.4"/>
  <text x="1080" y="986" text-anchor="middle" font-size="11" font-weight="700" fill="#14532D">dag_baselines VIEW</text>
  <text x="1080" y="1002" text-anchor="middle" font-size="10" fill="#374151">avg_duration ± 2σ threshold per DAG</text>
  <line x1="882" y1="1012" x2="1278" y2="1012" stroke="#16A34A" stroke-width="1" opacity="0.4"/>
  <text x="1080" y="1030" text-anchor="middle" font-size="11" font-weight="700" fill="#14532D">Airflow Metadata DB</text>
  <text x="1080" y="1046" text-anchor="middle" font-size="10" fill="#374151">Shared instance · K8s Secret credentials</text>
  <text x="1080" y="1062" text-anchor="middle" font-size="10" fill="#6B7280">TLS in-cluster · Fernet key rotation</text>
  <text x="1080" y="1078" text-anchor="middle" font-size="10" fill="#6B7280">StorageClass: standard · 20 GB PVC</text>

  <!-- Arrow: rca_callback → PostgreSQL -->
  <path d="M690 760 L690 820 L882 820 L882 940" stroke="#16A34A" stroke-width="2" fill="none" marker-end="url(#arr-green)"/>
  <text x="786" y="816" text-anchor="middle" font-size="9" fill="#14532D">Store RCA result</text>

  <!-- Arrow: PostgreSQL → rca_callback (run history, dashed) -->
  <path d="M904 868 L904 806 L700 806 L700 768" stroke="#16A34A" stroke-width="1.5" stroke-dasharray="5,3" fill="none" marker-end="url(#arr-green)"/>
  <text x="800" y="800" text-anchor="middle" font-size="9" fill="#14532D">run history</text>

  <!-- ═══ rca_callback → Ollama (POST, cross-namespace) ═══ -->
  <path d="M424 648 L294 648 L294 500 L276 500" stroke="#7C3AED" stroke-width="2.5" fill="none" marker-end="url(#arr-purple)"/>
  <text x="350" y="640" text-anchor="middle" font-size="9" fill="#4C1D95" font-weight="600">POST /api/generate</text>
  <text x="350" y="652" text-anchor="middle" font-size="9" fill="#4C1D95">Internal ClusterIP only</text>

  <!-- Ollama → rca_callback (JSON response, dashed) -->
  <path d="M276 520 L306 520 L306 676 L420 676" stroke="#7C3AED" stroke-width="2" stroke-dasharray="5,3" fill="none" marker-end="url(#arr-purple)"/>
  <text x="325" y="666" font-size="9" fill="#4C1D95">JSON: root_cause,</text>
  <text x="325" y="678" font-size="9" fill="#4C1D95">confidence, fix, severity</text>

  <!-- ═══ SPARK OPERATOR (external) ═══ -->
  <rect x="1354" y="196" width="284" height="228" rx="8" fill="#FEFCE8" stroke="#CA8A04" stroke-width="2" stroke-dasharray="8,4"/>
  <image href="https://upload.wikimedia.org/wikipedia/commons/f/f3/Apache_Spark_logo.svg" x="1362" y="204" width="80" height="22"/>
  <text x="1496" y="230" text-anchor="middle" font-size="11" font-weight="700" fill="#713F12">SparkOperator Central</text>
  <text x="1496" y="246" text-anchor="middle" font-size="10" fill="#78350F" font-style="italic">Platform Team Managed</text>
  <line x1="1354" y1="254" x2="1638" y2="254" stroke="#CA8A04" stroke-width="1" opacity="0.5"/>
  <text x="1496" y="272" text-anchor="middle" font-size="10" fill="#374151">Watches SparkApplication CRs</text>
  <text x="1496" y="288" text-anchor="middle" font-size="10" fill="#374151">in clmanalytics-dev1</text>
  <text x="1496" y="308" text-anchor="middle" font-size="10" fill="#6B7280">Cross-namespace RBAC grant</text>
  <text x="1496" y="324" text-anchor="middle" font-size="10" fill="#6B7280">ServiceAccount: spark</text>
  <text x="1496" y="340" text-anchor="middle" font-size="10" fill="#6B7280">ClusterRole: spark-operator-role</text>
  <text x="1496" y="360" text-anchor="middle" font-size="10" fill="#6B7280">Manages Driver + Executor pods</text>
  <text x="1496" y="376" text-anchor="middle" font-size="10" fill="#6B7280">Namespace: spark-operator</text>
  <text x="1496" y="396" text-anchor="middle" font-size="10" fill="#6B7280">Version: kubeflow/spark-operator</text>

  <!-- SparkOperator → SparkApplication CR (dashed) -->
  <path d="M1354 352 L1304 352 L1304 600 L1278 600" stroke="#CA8A04" stroke-width="2" stroke-dasharray="6,3" fill="none" marker-end="url(#arr-gold)"/>
  <text x="1310" y="476" font-size="9" fill="#92400E">Watches + manages pods</text>

  <!-- ═══ NOTIFICATIONS ═══ -->
  <text x="1358" y="442" font-size="12" font-weight="700" fill="#374151">Notifications (Internal)</text>

  <!-- MEA box -->
  <rect x="1354" y="454" width="284" height="184" rx="8" fill="#FFF1F2" stroke="#BE123C" stroke-width="2"/>
  <text x="1496" y="482" text-anchor="middle" font-size="20">✉️</text>
  <text x="1496" y="504" text-anchor="middle" font-size="11" font-weight="700" fill="#1E293B">MEA (Mail Enabled Application)</text>
  <text x="1496" y="520" text-anchor="middle" font-size="10" fill="#9F1239">Internal SMTP · enterprise relay</text>
  <line x1="1354" y1="528" x2="1638" y2="528" stroke="#BE123C" stroke-width="1" opacity="0.4"/>
  <text x="1496" y="546" text-anchor="middle" font-size="10" fill="#374151">Rich HTML email:</text>
  <text x="1496" y="562" text-anchor="middle" font-size="10" fill="#374151">• AI-generated root cause</text>
  <text x="1496" y="578" text-anchor="middle" font-size="10" fill="#374151">• Confidence score + severity badge</text>
  <text x="1496" y="594" text-anchor="middle" font-size="10" fill="#374151">• Immediate fix (highlighted box)</text>
  <text x="1496" y="610" text-anchor="middle" font-size="10" fill="#374151">• Airflow UI deep link</text>

  <!-- DBNotifier → Teams box -->
  <rect x="1354" y="650" width="284" height="228" rx="8" fill="#EFF6FF" stroke="#1D4ED8" stroke-width="2"/>
  <image href="https://upload.wikimedia.org/wikipedia/commons/c/c9/Microsoft_Office_Teams_%282018%E2%80%93present%29.svg" x="1468" y="660" width="30" height="30"/>
  <text x="1496" y="710" text-anchor="middle" font-size="11" font-weight="700" fill="#1E293B">DBNotifier → MS Teams</text>
  <text x="1496" y="726" text-anchor="middle" font-size="10" fill="#1E3A8A">Internal notification broker</text>
  <line x1="1354" y1="734" x2="1638" y2="734" stroke="#1D4ED8" stroke-width="1" opacity="0.4"/>
  <text x="1496" y="752" text-anchor="middle" font-size="10" fill="#374151">Teams channel alert:</text>
  <text x="1496" y="768" text-anchor="middle" font-size="10" fill="#374151">• DAG + task name</text>
  <text x="1496" y="784" text-anchor="middle" font-size="10" fill="#374151">• AI root cause (bold)</text>
  <text x="1496" y="800" text-anchor="middle" font-size="10" fill="#374151">• Severity + confidence</text>
  <text x="1496" y="816" text-anchor="middle" font-size="10" fill="#374151">• Estimated fix time</text>
  <text x="1496" y="832" text-anchor="middle" font-size="10" fill="#374151">• Airflow UI deep link</text>
  <text x="1496" y="848" text-anchor="middle" font-size="10" fill="#6B7280">Block Kit format</text>
  <text x="1496" y="864" text-anchor="middle" font-size="10" fill="#6B7280">Webhook or DB-trigger delivery</text>

  <!-- SLA callout -->
  <rect x="1354" y="892" width="284" height="66" rx="8" fill="#ECFDF5" stroke="#059669" stroke-width="2"/>
  <text x="1496" y="918" text-anchor="middle" font-size="13" font-weight="700" fill="#065F46">⏱️  30–60 seconds</text>
  <text x="1496" y="938" text-anchor="middle" font-size="11" fill="#065F46">failure → notification delivered</text>

  <!-- Arrows: rca_callback → MEA, DBNotifier -->
  <path d="M804 648 L1200 648 L1200 546 L1350 546" stroke="#BE123C" stroke-width="2" fill="none" marker-end="url(#arr-crimson)"/>
  <text x="1080" y="640" text-anchor="middle" font-size="9" fill="#881337" font-weight="600">HTML Email via MEA</text>

  <path d="M804 700 L1200 700 L1200 730 L1350 730" stroke="#1D4ED8" stroke-width="2" fill="none" marker-end="url(#arr-dkblue)"/>
  <text x="1080" y="720" text-anchor="middle" font-size="9" fill="#1E3A8A" font-weight="600">Teams alert via DBNotifier</text>

  <!-- ═══ LEGEND ═══ -->
  <text x="28" y="1422" font-size="11" font-weight="700" fill="#374151">Legend:</text>
  <rect x="98"  y="1408" width="100" height="24" rx="4" fill="#EDE9FE" stroke="#7C3AED" stroke-width="1.5"/><text x="148" y="1424" text-anchor="middle" font-size="10" fill="#1E293B">Ollama LLM</text>
  <rect x="206" y="1408" width="88"  height="24" rx="4" fill="#DBEAFE" stroke="#0EA5E9" stroke-width="1.5"/><text x="250" y="1424" text-anchor="middle" font-size="10" fill="#1E293B">Airflow</text>
  <rect x="302" y="1408" width="88"  height="24" rx="4" fill="#FDE68A" stroke="#D97706" stroke-width="1.5"/><text x="346" y="1424" text-anchor="middle" font-size="10" fill="#1E293B">Spark Jobs</text>
  <rect x="398" y="1408" width="88"  height="24" rx="4" fill="#CCFBF1" stroke="#0F766E" stroke-width="1.5"/><text x="442" y="1424" text-anchor="middle" font-size="10" fill="#1E293B">Trino</text>
  <rect x="494" y="1408" width="100" height="24" rx="4" fill="#DCFCE7" stroke="#16A34A" stroke-width="1.5"/><text x="544" y="1424" text-anchor="middle" font-size="10" fill="#1E293B">PostgreSQL</text>
  <rect x="602" y="1408" width="122" height="24" rx="4" fill="#FEFCE8" stroke="#CA8A04" stroke-width="1.5" stroke-dasharray="5,3"/><text x="663" y="1424" text-anchor="middle" font-size="10" fill="#1E293B">Platform/External</text>
  <rect x="732" y="1408" width="130" height="24" rx="4" fill="#FFF1F2" stroke="#BE123C" stroke-width="1.5"/><text x="797" y="1424" text-anchor="middle" font-size="10" fill="#1E293B">MEA (Internal Mail)</text>
  <rect x="870" y="1408" width="130" height="24" rx="4" fill="#EFF6FF" stroke="#1D4ED8" stroke-width="1.5"/><text x="935" y="1424" text-anchor="middle" font-size="10" fill="#1E293B">DBNotifier / Teams</text>
  <line x1="1012" y1="1420" x2="1060" y2="1420" stroke="#666" stroke-width="1.5" stroke-dasharray="5,3"/><text x="1130" y="1424" font-size="10" fill="#6B7280">dashed = optional/async</text>

</svg>
